<mxfile host="app.diagrams.net" modified="2021-07-11T08:31:56.499Z" agent="5.0 (Macintosh; Intel Mac OS X 10_15_7) AppleWebKit/537.36 (KHTML, like Gecko) Chrome/91.0.4472.114 Safari/537.36" etag="xaFha3qhWRQtdb1WbqCz" version="14.8.4" type="github" pages="3">
  <diagram id="swjQhX2a92RzG3uK-Tup" name="HashMap">
    <mxGraphModel dx="1082" dy="635" grid="1" gridSize="10" guides="1" tooltips="1" connect="1" arrows="1" fold="1" page="1" pageScale="1" pageWidth="827" pageHeight="1169" math="0" shadow="0">
      <root>
        <mxCell id="0" />
        <mxCell id="1" parent="0" />
        <mxCell id="CEReo5A6fMdYAH87CNEj-1" value="HashMap的底层数据结构" style="text;html=1;align=left;verticalAlign=middle;resizable=0;points=[];autosize=1;strokeColor=#b85450;fillColor=#f8cecc;" parent="1" vertex="1">
          <mxGeometry x="40" y="40" width="150" height="20" as="geometry" />
        </mxCell>
        <mxCell id="CEReo5A6fMdYAH87CNEj-3" value="数组 + 链表 + 红黑树" style="text;html=1;align=left;verticalAlign=middle;resizable=0;points=[];autosize=1;strokeColor=none;" parent="1" vertex="1">
          <mxGeometry x="60" y="80" width="130" height="20" as="geometry" />
        </mxCell>
        <mxCell id="CEReo5A6fMdYAH87CNEj-4" value="&amp;nbsp; publc int hashcode(String key){&lt;br&gt;&lt;br&gt;&amp;nbsp; &amp;nbsp; &amp;nbsp;int h ;&lt;br&gt;&amp;nbsp; &amp;nbsp; &amp;nbsp;return (key == null) ? 0 : (h = key.hashcode()) ^ (h &amp;gt;&amp;gt;&amp;gt; 16)&lt;br&gt;&lt;br&gt;&lt;div&gt;&lt;span&gt;&amp;nbsp; }&lt;/span&gt;&lt;/div&gt;" style="text;html=1;strokeColor=#666666;fillColor=#f5f5f5;align=left;verticalAlign=middle;whiteSpace=wrap;rounded=0;fontColor=#333333;" parent="1" vertex="1">
          <mxGeometry x="60" y="150" width="440" height="130" as="geometry" />
        </mxCell>
        <mxCell id="CEReo5A6fMdYAH87CNEj-5" value="^ 异或运算的意义， 让hashcode 中 能包含 高低16位的特征， 让寻址更加的分散" style="text;html=1;align=center;verticalAlign=middle;resizable=0;points=[];autosize=1;strokeColor=none;" parent="1" vertex="1">
          <mxGeometry x="60" y="300" width="440" height="20" as="geometry" />
        </mxCell>
        <mxCell id="CEReo5A6fMdYAH87CNEj-6" value="寻址算法的优化 ， 用与运算替代取模 ， 提升性能" style="text;html=1;align=center;verticalAlign=middle;resizable=0;points=[];autosize=1;strokeColor=none;" parent="1" vertex="1">
          <mxGeometry x="60" y="350" width="280" height="20" as="geometry" />
        </mxCell>
        <mxCell id="TaSuztM7fMkPA5zDZlyh-1" value="java 内存模型" style="text;html=1;align=left;verticalAlign=middle;resizable=0;points=[];autosize=1;strokeColor=#b85450;fillColor=#f8cecc;" vertex="1" parent="1">
          <mxGeometry x="40" y="410" width="90" height="20" as="geometry" />
        </mxCell>
        <mxCell id="TaSuztM7fMkPA5zDZlyh-2" value="主内存&amp;nbsp; data = 0&amp;nbsp;" style="rounded=1;whiteSpace=wrap;html=1;" vertex="1" parent="1">
          <mxGeometry x="140" y="760" width="550" height="40" as="geometry" />
        </mxCell>
        <mxCell id="TaSuztM7fMkPA5zDZlyh-14" style="edgeStyle=orthogonalEdgeStyle;rounded=0;orthogonalLoop=1;jettySize=auto;html=1;exitX=0.75;exitY=1;exitDx=0;exitDy=0;entryX=0.75;entryY=0;entryDx=0;entryDy=0;" edge="1" parent="1" source="TaSuztM7fMkPA5zDZlyh-3" target="TaSuztM7fMkPA5zDZlyh-5">
          <mxGeometry relative="1" as="geometry" />
        </mxCell>
        <mxCell id="TaSuztM7fMkPA5zDZlyh-3" value="线程1" style="rounded=1;whiteSpace=wrap;html=1;" vertex="1" parent="1">
          <mxGeometry x="230" y="460" width="120" height="40" as="geometry" />
        </mxCell>
        <mxCell id="TaSuztM7fMkPA5zDZlyh-27" style="edgeStyle=orthogonalEdgeStyle;rounded=0;orthogonalLoop=1;jettySize=auto;html=1;exitX=0.75;exitY=1;exitDx=0;exitDy=0;" edge="1" parent="1" source="TaSuztM7fMkPA5zDZlyh-4">
          <mxGeometry relative="1" as="geometry">
            <mxPoint x="612.1666666666667" y="590" as="targetPoint" />
          </mxGeometry>
        </mxCell>
        <mxCell id="TaSuztM7fMkPA5zDZlyh-4" value="线程2" style="rounded=1;whiteSpace=wrap;html=1;" vertex="1" parent="1">
          <mxGeometry x="530" y="460" width="110" height="40" as="geometry" />
        </mxCell>
        <mxCell id="TaSuztM7fMkPA5zDZlyh-7" style="edgeStyle=orthogonalEdgeStyle;rounded=0;orthogonalLoop=1;jettySize=auto;html=1;exitX=0.25;exitY=1;exitDx=0;exitDy=0;" edge="1" parent="1" source="TaSuztM7fMkPA5zDZlyh-5">
          <mxGeometry relative="1" as="geometry">
            <mxPoint x="260" y="690" as="targetPoint" />
          </mxGeometry>
        </mxCell>
        <mxCell id="TaSuztM7fMkPA5zDZlyh-12" style="edgeStyle=orthogonalEdgeStyle;rounded=0;orthogonalLoop=1;jettySize=auto;html=1;entryX=0.25;entryY=1;entryDx=0;entryDy=0;exitX=0.25;exitY=0;exitDx=0;exitDy=0;" edge="1" parent="1" source="TaSuztM7fMkPA5zDZlyh-5" target="TaSuztM7fMkPA5zDZlyh-3">
          <mxGeometry relative="1" as="geometry" />
        </mxCell>
        <mxCell id="TaSuztM7fMkPA5zDZlyh-17" style="edgeStyle=orthogonalEdgeStyle;rounded=0;orthogonalLoop=1;jettySize=auto;html=1;exitX=0.75;exitY=1;exitDx=0;exitDy=0;" edge="1" parent="1" source="TaSuztM7fMkPA5zDZlyh-5">
          <mxGeometry relative="1" as="geometry">
            <mxPoint x="320" y="680" as="targetPoint" />
          </mxGeometry>
        </mxCell>
        <mxCell id="TaSuztM7fMkPA5zDZlyh-5" value="工作内存&lt;br&gt;cpu级别的缓存" style="rounded=0;whiteSpace=wrap;html=1;" vertex="1" parent="1">
          <mxGeometry x="230" y="600" width="120" height="40" as="geometry" />
        </mxCell>
        <mxCell id="TaSuztM7fMkPA5zDZlyh-21" style="edgeStyle=orthogonalEdgeStyle;rounded=0;orthogonalLoop=1;jettySize=auto;html=1;exitX=0.25;exitY=1;exitDx=0;exitDy=0;entryX=0.764;entryY=-0.125;entryDx=0;entryDy=0;entryPerimeter=0;" edge="1" parent="1" source="TaSuztM7fMkPA5zDZlyh-6" target="TaSuztM7fMkPA5zDZlyh-2">
          <mxGeometry relative="1" as="geometry" />
        </mxCell>
        <mxCell id="TaSuztM7fMkPA5zDZlyh-25" style="edgeStyle=orthogonalEdgeStyle;rounded=0;orthogonalLoop=1;jettySize=auto;html=1;exitX=0.25;exitY=0;exitDx=0;exitDy=0;" edge="1" parent="1" source="TaSuztM7fMkPA5zDZlyh-6">
          <mxGeometry relative="1" as="geometry">
            <mxPoint x="559.6666666666667" y="510" as="targetPoint" />
          </mxGeometry>
        </mxCell>
        <mxCell id="TaSuztM7fMkPA5zDZlyh-29" style="edgeStyle=orthogonalEdgeStyle;rounded=0;orthogonalLoop=1;jettySize=auto;html=1;exitX=0.75;exitY=1;exitDx=0;exitDy=0;" edge="1" parent="1" source="TaSuztM7fMkPA5zDZlyh-6">
          <mxGeometry relative="1" as="geometry">
            <mxPoint x="620" y="680" as="targetPoint" />
          </mxGeometry>
        </mxCell>
        <mxCell id="TaSuztM7fMkPA5zDZlyh-6" value="工作内存&lt;br&gt;cpu级别的缓存" style="rounded=0;whiteSpace=wrap;html=1;" vertex="1" parent="1">
          <mxGeometry x="530" y="600" width="120" height="40" as="geometry" />
        </mxCell>
        <mxCell id="TaSuztM7fMkPA5zDZlyh-9" style="edgeStyle=orthogonalEdgeStyle;rounded=0;orthogonalLoop=1;jettySize=auto;html=1;exitX=0.25;exitY=1;exitDx=0;exitDy=0;entryX=0.182;entryY=0.025;entryDx=0;entryDy=0;entryPerimeter=0;" edge="1" parent="1" source="TaSuztM7fMkPA5zDZlyh-8" target="TaSuztM7fMkPA5zDZlyh-2">
          <mxGeometry relative="1" as="geometry" />
        </mxCell>
        <mxCell id="TaSuztM7fMkPA5zDZlyh-19" style="edgeStyle=orthogonalEdgeStyle;rounded=0;orthogonalLoop=1;jettySize=auto;html=1;exitX=1;exitY=0.5;exitDx=0;exitDy=0;entryX=0.405;entryY=-0.1;entryDx=0;entryDy=0;entryPerimeter=0;" edge="1" parent="1" source="TaSuztM7fMkPA5zDZlyh-8" target="TaSuztM7fMkPA5zDZlyh-2">
          <mxGeometry relative="1" as="geometry" />
        </mxCell>
        <mxCell id="TaSuztM7fMkPA5zDZlyh-8" value="data = 0&amp;nbsp;" style="rounded=1;whiteSpace=wrap;html=1;" vertex="1" parent="1">
          <mxGeometry x="210" y="690" width="120" height="30" as="geometry" />
        </mxCell>
        <mxCell id="TaSuztM7fMkPA5zDZlyh-10" value="read" style="text;html=1;align=center;verticalAlign=middle;resizable=0;points=[];autosize=1;strokeColor=none;" vertex="1" parent="1">
          <mxGeometry x="190" y="730" width="40" height="20" as="geometry" />
        </mxCell>
        <mxCell id="TaSuztM7fMkPA5zDZlyh-11" value="load" style="text;html=1;align=center;verticalAlign=middle;resizable=0;points=[];autosize=1;strokeColor=none;" vertex="1" parent="1">
          <mxGeometry x="210" y="660" width="40" height="20" as="geometry" />
        </mxCell>
        <mxCell id="TaSuztM7fMkPA5zDZlyh-13" value="use" style="text;html=1;align=center;verticalAlign=middle;resizable=0;points=[];autosize=1;strokeColor=none;" vertex="1" parent="1">
          <mxGeometry x="215" y="530" width="30" height="20" as="geometry" />
        </mxCell>
        <mxCell id="TaSuztM7fMkPA5zDZlyh-15" value="assign" style="text;html=1;align=center;verticalAlign=middle;resizable=0;points=[];autosize=1;strokeColor=none;" vertex="1" parent="1">
          <mxGeometry x="325" y="540" width="50" height="20" as="geometry" />
        </mxCell>
        <mxCell id="TaSuztM7fMkPA5zDZlyh-18" value="store" style="text;html=1;align=center;verticalAlign=middle;resizable=0;points=[];autosize=1;strokeColor=none;" vertex="1" parent="1">
          <mxGeometry x="330" y="650" width="40" height="20" as="geometry" />
        </mxCell>
        <mxCell id="TaSuztM7fMkPA5zDZlyh-20" value="write" style="text;html=1;align=center;verticalAlign=middle;resizable=0;points=[];autosize=1;strokeColor=none;" vertex="1" parent="1">
          <mxGeometry x="370" y="720" width="40" height="20" as="geometry" />
        </mxCell>
        <mxCell id="TaSuztM7fMkPA5zDZlyh-22" value="read" style="text;html=1;align=center;verticalAlign=middle;resizable=0;points=[];autosize=1;strokeColor=none;" vertex="1" parent="1">
          <mxGeometry x="510" y="690" width="40" height="20" as="geometry" />
        </mxCell>
        <mxCell id="TaSuztM7fMkPA5zDZlyh-23" value="load" style="text;html=1;align=center;verticalAlign=middle;resizable=0;points=[];autosize=1;strokeColor=none;" vertex="1" parent="1">
          <mxGeometry x="510" y="650" width="40" height="20" as="geometry" />
        </mxCell>
        <mxCell id="TaSuztM7fMkPA5zDZlyh-26" value="use" style="text;html=1;align=center;verticalAlign=middle;resizable=0;points=[];autosize=1;strokeColor=none;" vertex="1" parent="1">
          <mxGeometry x="505" y="540" width="30" height="20" as="geometry" />
        </mxCell>
        <mxCell id="TaSuztM7fMkPA5zDZlyh-28" value="assign" style="text;html=1;align=center;verticalAlign=middle;resizable=0;points=[];autosize=1;strokeColor=none;" vertex="1" parent="1">
          <mxGeometry x="615" y="540" width="50" height="20" as="geometry" />
        </mxCell>
        <mxCell id="TaSuztM7fMkPA5zDZlyh-30" value="store" style="text;html=1;align=center;verticalAlign=middle;resizable=0;points=[];autosize=1;strokeColor=none;" vertex="1" parent="1">
          <mxGeometry x="630" y="660" width="40" height="20" as="geometry" />
        </mxCell>
        <mxCell id="TaSuztM7fMkPA5zDZlyh-31" value="" style="endArrow=classic;html=1;" edge="1" parent="1">
          <mxGeometry width="50" height="50" relative="1" as="geometry">
            <mxPoint x="620" y="710" as="sourcePoint" />
            <mxPoint x="620" y="750" as="targetPoint" />
          </mxGeometry>
        </mxCell>
        <mxCell id="TaSuztM7fMkPA5zDZlyh-32" value="write" style="text;html=1;align=center;verticalAlign=middle;resizable=0;points=[];autosize=1;strokeColor=none;" vertex="1" parent="1">
          <mxGeometry x="630" y="720" width="40" height="20" as="geometry" />
        </mxCell>
        <mxCell id="TaSuztM7fMkPA5zDZlyh-33" value="data = 0&amp;nbsp;" style="rounded=1;whiteSpace=wrap;html=1;" vertex="1" parent="1">
          <mxGeometry x="550" y="685" width="120" height="30" as="geometry" />
        </mxCell>
      </root>
    </mxGraphModel>
  </diagram>
  <diagram id="x7YFSWBFlQ_xHAf-3HSW" name="并发编程">
    <mxGraphModel dx="1298" dy="762" grid="1" gridSize="10" guides="1" tooltips="1" connect="1" arrows="1" fold="1" page="1" pageScale="1" pageWidth="827" pageHeight="1169" math="0" shadow="0">
      <root>
        <mxCell id="Alida9wjGuhovxZSMU0H-0" />
        <mxCell id="Alida9wjGuhovxZSMU0H-1" parent="Alida9wjGuhovxZSMU0H-0" />
        <mxCell id="Alida9wjGuhovxZSMU0H-2" value="synchronized 实现原理" style="text;html=1;align=center;verticalAlign=middle;resizable=0;points=[];autosize=1;strokeColor=none;" parent="Alida9wjGuhovxZSMU0H-1" vertex="1">
          <mxGeometry x="40" y="50" width="140" height="20" as="geometry" />
        </mxCell>
        <mxCell id="Alida9wjGuhovxZSMU0H-3" value="CAS 无锁化的原理" style="text;html=1;align=center;verticalAlign=middle;resizable=0;points=[];autosize=1;strokeColor=none;" parent="Alida9wjGuhovxZSMU0H-1" vertex="1">
          <mxGeometry x="35" y="200" width="120" height="20" as="geometry" />
        </mxCell>
        <mxCell id="Alida9wjGuhovxZSMU0H-4" value="AQS" style="text;html=1;align=center;verticalAlign=middle;resizable=0;points=[];autosize=1;strokeColor=none;" parent="Alida9wjGuhovxZSMU0H-1" vertex="1">
          <mxGeometry x="40" y="340" width="40" height="20" as="geometry" />
        </mxCell>
      </root>
    </mxGraphModel>
  </diagram>
  <diagram id="BmoK869zDuTq-P7FpqDX" name="spring">
    <mxGraphModel dx="1298" dy="762" grid="1" gridSize="10" guides="1" tooltips="1" connect="1" arrows="1" fold="1" page="1" pageScale="1" pageWidth="827" pageHeight="1169" math="0" shadow="0">
      <root>
        <mxCell id="M6nb2VnPMF7bDCNY_q6S-0" />
        <mxCell id="M6nb2VnPMF7bDCNY_q6S-1" parent="M6nb2VnPMF7bDCNY_q6S-0" />
        <mxCell id="M6nb2VnPMF7bDCNY_q6S-2" value="spring ioc&lt;br&gt;" style="text;html=1;align=center;verticalAlign=middle;resizable=0;points=[];autosize=1;strokeColor=none;" vertex="1" parent="M6nb2VnPMF7bDCNY_q6S-1">
          <mxGeometry x="40" y="40" width="70" height="20" as="geometry" />
        </mxCell>
        <mxCell id="M6nb2VnPMF7bDCNY_q6S-3" value="spring ioc. 首先要启动容器 ，根据xml 或者注解的配置，来实例化一些bean 对象，然后根据xml 或者 注解，去完成bean 对象之间的引用关系&lt;br&gt;去进行依赖的注入，某个bean 依赖 另外一个bean&lt;br&gt;&lt;br&gt;底层使用的核心技术，反射 ， 直接根据类自己去构建对象的对象出来，用的就是反射技术&lt;br&gt;&lt;br&gt;使得类与类之间彻底的解耦合了。" style="text;html=1;strokeColor=none;fillColor=none;align=left;verticalAlign=middle;whiteSpace=wrap;rounded=0;" vertex="1" parent="M6nb2VnPMF7bDCNY_q6S-1">
          <mxGeometry x="40" y="90" width="770" height="90" as="geometry" />
        </mxCell>
      </root>
    </mxGraphModel>
  </diagram>
</mxfile>
